<svg width="24" height="24" viewBox="0 0 24 24" fill="none" xmlns="http://www.w3.org/2000/svg">
<rect y="0.960022" width="24" height="23.04" rx="5" fill="url(#paint0_linear_103_13)"/>
<mask id="path-2-outside-1_103_13" maskUnits="userSpaceOnUse" x="3" y="5" width="10" height="16" fill="black">
<rect fill="white" x="3" y="5" width="10" height="16"/>
<path d="M5.15 20C4.98333 20 4.9 19.9167 4.9 19.75V17.87C4.9 17.7833 4.90333 17.7133 4.91 17.66C4.92333 17.6067 4.96333 17.5633 5.03 17.53L7.65 16.33V14.55L5.07 12.95C4.95667 12.8833 4.9 12.7833 4.9 12.65V8.98C4.9 8.87333 4.90667 8.79667 4.92 8.75C4.93333 8.69667 4.98333 8.64 5.07 8.58L7.7 6.8C7.76667 6.76 7.82667 6.73 7.88 6.71C7.94 6.68333 8.01333 6.67 8.1 6.67H10.8C10.9667 6.67 11.05 6.75333 11.05 6.92V8.62C11.05 8.76667 11 8.86667 10.9 8.92L8.28 10V11.85L10.9 13.35C11 13.3967 11.05 13.5033 11.05 13.67V18.02C11.05 18.0733 11.04 18.13 11.02 18.19C11.0067 18.25 10.9733 18.2933 10.92 18.32L7.78 19.88C7.74 19.9 7.69 19.9267 7.63 19.96C7.57667 19.9867 7.52333 20 7.47 20H5.15Z"/>
</mask>
<path d="M5.15 20C4.98333 20 4.9 19.9167 4.9 19.75V17.87C4.9 17.7833 4.90333 17.7133 4.91 17.66C4.92333 17.6067 4.96333 17.5633 5.03 17.53L7.65 16.33V14.55L5.07 12.95C4.95667 12.8833 4.9 12.7833 4.9 12.65V8.98C4.9 8.87333 4.90667 8.79667 4.92 8.75C4.93333 8.69667 4.98333 8.64 5.07 8.58L7.7 6.8C7.76667 6.76 7.82667 6.73 7.88 6.71C7.94 6.68333 8.01333 6.67 8.1 6.67H10.8C10.9667 6.67 11.05 6.75333 11.05 6.92V8.62C11.05 8.76667 11 8.86667 10.9 8.92L8.28 10V11.85L10.9 13.35C11 13.3967 11.05 13.5033 11.05 13.67V18.02C11.05 18.0733 11.04 18.13 11.02 18.19C11.0067 18.25 10.9733 18.2933 10.92 18.32L7.78 19.88C7.74 19.9 7.69 19.9267 7.63 19.96C7.57667 19.9867 7.52333 20 7.47 20H5.15Z" fill="#F5F5F5"/>
<path d="M4.91 17.66L3.93986 17.4175L3.92521 17.476L3.91772 17.536L4.91 17.66ZM5.03 17.53L4.61358 16.6208L4.59806 16.6279L4.58279 16.6356L5.03 17.53ZM7.65 16.33L8.06642 17.2392L8.65 16.9719V16.33H7.65ZM7.65 14.55H8.65V13.9935L8.17703 13.7002L7.65 14.55ZM5.07 12.95L5.59703 12.1002L5.5871 12.094L5.57702 12.0881L5.07 12.95ZM4.92 8.75L5.88152 9.02472L5.8861 9.0087L5.89014 8.99253L4.92 8.75ZM5.07 8.58L4.50947 7.7518L4.50079 7.75781L5.07 8.58ZM7.7 6.8L7.1855 5.94251L7.1621 5.95655L7.1395 5.97184L7.7 6.8ZM7.88 6.71L8.23113 7.64633L8.25896 7.63589L8.28613 7.62381L7.88 6.71ZM10.9 8.92L11.2811 9.84453L11.3269 9.82566L11.3706 9.80235L10.9 8.92ZM8.28 10L7.8989 9.07547L7.28 9.33059V10H8.28ZM8.28 11.85H7.28V12.4298L7.78315 12.7178L8.28 11.85ZM10.9 13.35L10.4031 14.2178L10.4393 14.2386L10.4771 14.2562L10.9 13.35ZM11.02 18.19L10.0713 17.8738L10.055 17.9227L10.0438 17.9731L11.02 18.19ZM10.92 18.32L11.3649 19.2156L11.3672 19.2144L10.92 18.32ZM7.78 19.88L7.33507 18.9844L7.33279 18.9856L7.78 19.88ZM7.63 19.96L8.07721 20.8544L8.09665 20.8447L8.11564 20.8342L7.63 19.96ZM5.15 20V19C5.22081 19 5.45759 19.0184 5.66961 19.2304C5.88162 19.4424 5.9 19.6792 5.9 19.75H4.9H3.9C3.9 19.9875 3.96005 20.3493 4.25539 20.6446C4.55074 20.94 4.91252 21 5.15 21V20ZM4.9 19.75H5.9V17.87H4.9H3.9V19.75H4.9ZM4.9 17.87H5.9C5.9 17.839 5.90061 17.816 5.90137 17.8001C5.90216 17.7834 5.9029 17.779 5.90228 17.784L4.91 17.66L3.91772 17.536C3.90378 17.6475 3.9 17.7636 3.9 17.87H4.9ZM4.91 17.66L5.88014 17.9025C5.79987 18.2236 5.57382 18.3761 5.47721 18.4244L5.03 17.53L4.58279 16.6356C4.35284 16.7505 4.0468 16.9897 3.93986 17.4175L4.91 17.66ZM5.03 17.53L5.44642 18.4392L8.06642 17.2392L7.65 16.33L7.23358 15.4208L4.61358 16.6208L5.03 17.53ZM7.65 16.33H8.65V14.55H7.65H6.65V16.33H7.65ZM7.65 14.55L8.17703 13.7002L5.59703 12.1002L5.07 12.95L4.54297 13.7998L7.12297 15.3998L7.65 14.55ZM5.07 12.95L5.57702 12.0881C5.64951 12.1307 5.7425 12.2084 5.81252 12.332C5.88217 12.4549 5.9 12.5718 5.9 12.65H4.9H3.9C3.9 13.1316 4.13895 13.5625 4.56298 13.8119L5.07 12.95ZM4.9 12.65H5.9V8.98H4.9H3.9V12.65H4.9ZM4.9 8.98H5.9C5.9 8.96356 5.90026 8.95102 5.90059 8.94196C5.90092 8.93276 5.90127 8.92876 5.90124 8.92913C5.90124 8.92917 5.90058 8.93695 5.89836 8.9507C5.89626 8.96361 5.8915 8.98981 5.88152 9.02472L4.92 8.75L3.95848 8.47528C3.90387 8.66641 3.9 8.86415 3.9 8.98H4.9ZM4.92 8.75L5.89014 8.99253C5.8462 9.1683 5.76063 9.28005 5.71734 9.32912C5.69352 9.35611 5.6734 9.37447 5.66114 9.38494C5.64866 9.39559 5.64065 9.40119 5.63921 9.40219L5.07 8.58L4.50079 7.75781C4.37389 7.84566 4.05633 8.08159 3.94986 8.50747L4.92 8.75ZM5.07 8.58L5.6305 9.40815L8.2605 7.62815L7.7 6.8L7.1395 5.97184L4.5095 7.75184L5.07 8.58ZM7.7 6.8L8.2145 7.65749C8.22924 7.64865 8.23836 7.64385 8.24222 7.64193C8.24626 7.6399 8.24234 7.64212 8.23113 7.64633L7.88 6.71L7.52887 5.77367C7.40255 5.82104 7.28675 5.88176 7.1855 5.94251L7.7 6.8ZM7.88 6.71L8.28613 7.62381C8.18435 7.66905 8.11063 7.67 8.1 7.67V6.67V5.67C7.91604 5.67 7.69565 5.69762 7.47387 5.79619L7.88 6.71ZM8.1 6.67V7.67H10.8V6.67V5.67H8.1V6.67ZM10.8 6.67V7.67C10.7292 7.67 10.4924 7.65162 10.2804 7.43961C10.0684 7.22759 10.05 6.99081 10.05 6.92H11.05H12.05C12.05 6.68252 11.99 6.32074 11.6946 6.02539C11.3993 5.73005 11.0375 5.67 10.8 5.67V6.67ZM11.05 6.92H10.05V8.62H11.05H12.05V6.92H11.05ZM11.05 8.62H10.05C10.05 8.58463 10.0555 8.48301 10.1181 8.35779C10.1872 8.2196 10.2991 8.10714 10.4294 8.03765L10.9 8.92L11.3706 9.80235C11.8949 9.5227 12.05 9.00909 12.05 8.62H11.05ZM10.9 8.92L10.5189 7.99547L7.8989 9.07547L8.28 10L8.66111 10.9245L11.2811 9.84453L10.9 8.92ZM8.28 10H7.28V11.85H8.28H9.28V10H8.28ZM8.28 11.85L7.78315 12.7178L10.4031 14.2178L10.9 13.35L11.3969 12.4822L8.77685 10.9822L8.28 11.85ZM10.9 13.35L10.4771 14.2562C10.2998 14.1734 10.1742 14.0328 10.107 13.8894C10.0495 13.7667 10.05 13.6767 10.05 13.67H11.05H12.05C12.05 13.3383 11.9403 12.7319 11.3229 12.4438L10.9 13.35ZM11.05 13.67H10.05V18.02H11.05H12.05V13.67H11.05ZM11.05 18.02H10.05C10.05 17.948 10.0635 17.8973 10.0713 17.8738L11.02 18.19L11.9687 18.5062C12.0165 18.3627 12.05 18.1987 12.05 18.02H11.05ZM11.02 18.19L10.0438 17.9731C10.0649 17.8781 10.1094 17.7657 10.1924 17.6578C10.276 17.5491 10.3767 17.4736 10.4728 17.4256L10.92 18.32L11.3672 19.2144C11.6993 19.0484 11.9199 18.7504 11.9962 18.4069L11.02 18.19ZM10.92 18.32L10.4751 17.4244L7.33507 18.9844L7.78 19.88L8.22493 20.7756L11.3649 19.2156L10.92 18.32ZM7.78 19.88L7.33279 18.9856C7.27494 19.0145 7.21111 19.0488 7.14436 19.0858L7.63 19.96L8.11564 20.8342C8.16889 20.8046 8.20506 20.7855 8.22721 20.7744L7.78 19.88ZM7.63 19.96L7.18279 19.0656C7.25174 19.0311 7.35057 19 7.47 19V20V21C7.6961 21 7.90159 20.9422 8.07721 20.8544L7.63 19.96ZM7.47 20V19H5.15V20V21H7.47V20Z" fill="#110B52" fill-opacity="0.13" mask="url(#path-2-outside-1_103_13)"/>
<mask id="path-4-outside-2_103_13" maskUnits="userSpaceOnUse" x="13" y="9.84003" width="10" height="10" fill="black">
<rect fill="white" x="13" y="9.84003" width="10" height="10"/>
<path d="M17.14 16.76L18.16 15.74H14.4V13.88H18.14L17.14 12.88L18.3 11.74L21.38 14.82L18.3 17.9L17.14 16.76Z"/>
</mask>
<path d="M17.14 16.76L18.16 15.74H14.4V13.88H18.14L17.14 12.88L18.3 11.74L21.38 14.82L18.3 17.9L17.14 16.76Z" fill="#F5F5F5"/>
<path d="M17.14 16.76L16.4329 16.0529L15.7196 16.7662L16.4391 17.4733L17.14 16.76ZM18.16 15.74L18.8671 16.4471L20.5742 14.74H18.16V15.74ZM14.4 15.74H13.4V16.74H14.4V15.74ZM14.4 13.88V12.88H13.4V13.88H14.4ZM18.14 13.88V14.88H20.5542L18.8471 13.1729L18.14 13.88ZM17.14 12.88L16.4391 12.1668L15.7196 12.8739L16.4329 13.5871L17.14 12.88ZM18.3 11.74L19.0071 11.0329L18.3061 10.3319L17.5991 11.0268L18.3 11.74ZM21.38 14.82L22.0871 15.5271L22.7942 14.82L22.0871 14.1129L21.38 14.82ZM18.3 17.9L17.5991 18.6133L18.3061 19.3081L19.0071 18.6071L18.3 17.9ZM17.14 16.76L17.8471 17.4671L18.8671 16.4471L18.16 15.74L17.4529 15.0329L16.4329 16.0529L17.14 16.76ZM18.16 15.74V14.74H14.4V15.74V16.74H18.16V15.74ZM14.4 15.74H15.4V13.88H14.4H13.4V15.74H14.4ZM14.4 13.88V14.88H18.14V13.88V12.88H14.4V13.88ZM18.14 13.88L18.8471 13.1729L17.8471 12.1729L17.14 12.88L16.4329 13.5871L17.4329 14.5871L18.14 13.88ZM17.14 12.88L17.8409 13.5933L19.0009 12.4533L18.3 11.74L17.5991 11.0268L16.4391 12.1668L17.14 12.88ZM18.3 11.74L17.5929 12.4471L20.6729 15.5271L21.38 14.82L22.0871 14.1129L19.0071 11.0329L18.3 11.74ZM21.38 14.82L20.6729 14.1129L17.5929 17.1929L18.3 17.9L19.0071 18.6071L22.0871 15.5271L21.38 14.82ZM18.3 17.9L19.0009 17.1868L17.8409 16.0468L17.14 16.76L16.4391 17.4733L17.5991 18.6133L18.3 17.9Z" fill="#585394" fill-opacity="0.26" mask="url(#path-4-outside-2_103_13)"/>
<defs>
<linearGradient id="paint0_linear_103_13" x1="12" y1="0.960022" x2="12" y2="24" gradientUnits="userSpaceOnUse">
<stop stop-color="#F80753"/>
<stop offset="1" stop-color="#920431"/>
</linearGradient>
</defs>
</svg>
